<svg width="11" height="18" viewBox="0 0 11 18" fill="none" xmlns="http://www.w3.org/2000/svg">
<path d="M10.4211 9C10.4211 8.74078 10.3145 8.5023 10.112 8.31567L1.67291 0.269585C1.48111 0.093318 1.24669 0 0.969648 0C0.426219 0 0 0.404378 0 0.943548C0 1.20277 0.106555 1.44124 0.277042 1.61751L8.03423 9L0.277042 16.3825C0.106555 16.5588 0 16.7869 0 17.0565C0 17.5956 0.426219 18 0.969648 18C1.24669 18 1.48111 17.9067 1.67291 17.72L10.112 9.68433C10.3145 9.48733 10.4211 9.25922 10.4211 9Z" fill="black"/>
</svg>
