<svg width="18" height="11" viewBox="0 0 18 11" fill="none" xmlns="http://www.w3.org/2000/svg">
<path d="M9 10.4211C9.25922 10.4211 9.4977 10.3145 9.68433 10.112L17.7304 1.67291C17.9067 1.48111 18 1.24669 18 0.969648C18 0.426219 17.5956 0 17.0565 0C16.7972 0 16.5588 0.106555 16.3825 0.277042L9 8.03423L1.61751 0.277042C1.44124 0.106555 1.21313 0 0.943548 0C0.404377 0 -5.89527e-07 0.426219 -5.89527e-07 0.969648C-5.89527e-07 1.24669 0.0933174 1.48111 0.279953 1.67291L8.31567 10.112C8.51267 10.3145 8.74078 10.4211 9 10.4211Z" fill="black"/>
</svg>
