<svg width="30" height="30" viewBox="0 0 30 30" fill="none" xmlns="http://www.w3.org/2000/svg">
<path d="M22.5 3.75001V3.75001C23.197 3.75001 23.5455 3.75001 23.8353 3.80765C25.0253 4.04437 25.9556 4.97467 26.1924 6.16474C26.25 6.45454 26.25 6.80303 26.25 7.50001L26.25 10.25C26.25 10.7214 26.25 10.9571 26.1036 11.1036C25.9571 11.25 25.7214 11.25 25.25 11.25L18.75 11.25M22.5 3.75001V3.75001C21.803 3.75001 21.4545 3.75001 21.1647 3.80765C19.9747 4.04437 19.0444 4.97467 18.8076 6.16474C18.75 6.45454 18.75 6.80303 18.75 7.50001L18.75 11.25M22.5 3.75001L7.75 3.75001C5.86438 3.75001 4.92157 3.75001 4.33579 4.3358C3.75 4.92158 3.75 5.86439 3.75 7.75001L3.75 26.25L7.5 25L11.25 26.25L15 25L18.75 26.25L18.75 11.25" stroke="black" stroke-width="2"/>
<path d="M8.75 8.75L13.75 8.75" stroke="black" stroke-width="2" stroke-linecap="round"/>
<path d="M10 13.75H8.75" stroke="black" stroke-width="2" stroke-linecap="round"/>
<path d="M8.75 18.75L12.5 18.75" stroke="black" stroke-width="2" stroke-linecap="round"/>
</svg>
