<svg width="28" height="28" viewBox="0 0 28 28" fill="none" xmlns="http://www.w3.org/2000/svg">
<path d="M16.4922 3.92168L17.4872 3.82218L17.4872 3.82218L16.4922 3.92168ZM16.2174 2.71901L17.0065 2.10469L17.0065 2.10468L16.2174 2.71901ZM17.0258 6.03671L17.6289 5.23905L17.6289 5.23904L17.0258 6.03671ZM17.4913 6.22953L17.6289 5.23904L17.6289 5.23904L17.4913 6.22953ZM19.3642 5.11132L19.9974 5.88528L19.9974 5.88528L19.3642 5.11132ZM20.4089 4.4552L20.2853 3.46287L20.2853 3.46287L20.4089 4.4552ZM20.7541 4.47242L20.5324 5.44754L20.5324 5.44754L20.7541 4.47242ZM21.7283 5.22923L21.0212 5.93634L21.0212 5.93634L21.7283 5.22923ZM22.7707 6.27161L23.4778 5.5645L23.4778 5.5645L22.7707 6.27161ZM23.5275 7.24585L22.5524 7.46752L22.5524 7.46754L23.5275 7.24585ZM23.5448 7.59107L24.5371 7.71463L24.5371 7.71461L23.5448 7.59107ZM22.8886 8.63579L23.6626 9.26902L23.6626 9.26902L22.8886 8.63579ZM21.7704 10.5087L22.7609 10.3711L22.7609 10.3711L21.7704 10.5087ZM21.9632 10.9742L22.7609 10.3711L22.7609 10.3711L21.9632 10.9742ZM24.0783 11.5078L23.9788 12.5029L23.9788 12.5029L24.0783 11.5078ZM25.281 11.7826L24.6667 12.5717L24.6667 12.5717L25.281 11.7826ZM25.5129 12.0389L26.3592 11.5061L26.3592 11.5061L25.5129 12.0389ZM25.513 15.961L26.3593 16.4937L26.3593 16.4937L25.513 15.961ZM25.2809 16.2175L24.6667 15.4283L24.6667 15.4283L25.2809 16.2175ZM24.0784 16.4922L24.1779 17.4872L24.1779 17.4872L24.0784 16.4922ZM21.9638 17.0256L21.1663 16.4223L21.1663 16.4223L21.9638 17.0256ZM21.7708 17.4915L20.7803 17.3541L20.7803 17.3541L21.7708 17.4915ZM22.8888 19.3639L22.1149 19.9971L22.1149 19.9971L22.8888 19.3639ZM23.5448 20.4082L22.5525 20.532L22.5525 20.532L23.5448 20.4082ZM23.5276 20.7538L24.5026 20.9756L24.5026 20.9756L23.5276 20.7538ZM20.7542 23.5271L20.5325 22.5519L20.5325 22.5519L20.7542 23.5271ZM20.4089 23.5443L20.5325 22.5519L20.5325 22.5519L20.4089 23.5443ZM19.3642 22.8882L18.6571 23.5953L18.6924 23.6305L18.731 23.6621L19.3642 22.8882ZM19.3642 22.8882L20.0713 22.181L20.0361 22.1458L19.9975 22.1142L19.3642 22.8882ZM17.4914 21.7699L17.3538 20.7795L17.3538 20.7795L17.4914 21.7699ZM17.0258 21.9628L16.4227 21.1651L16.4227 21.1651L17.0258 21.9628ZM16.4922 24.078L17.4872 24.1775L17.4872 24.1775L16.4922 24.078ZM16.2173 25.2811L17.0063 25.8955L17.0063 25.8955L16.2173 25.2811ZM15.9612 25.5129L16.4941 26.3591L16.4941 26.3591L15.9612 25.5129ZM12.0389 25.5129L12.5717 24.6667L12.5716 24.6667L12.0389 25.5129ZM11.7826 25.281L12.5717 24.6667L12.5717 24.6667L11.7826 25.281ZM11.5078 24.0783L10.5128 24.1778L10.5128 24.1778L11.5078 24.0783ZM10.9742 21.9632L11.5772 21.1655L11.5772 21.1655L10.9742 21.9632ZM10.5087 21.7704L10.3711 22.7609L10.3711 22.7609L10.5087 21.7704ZM8.63577 22.8887L9.2605 23.6696L9.269 23.6626L8.63577 22.8887ZM8.63575 22.8887L8.01102 22.1078L8.00251 22.1147L8.63575 22.8887ZM7.591 23.5448L7.71453 24.5372L7.71453 24.5372L7.591 23.5448ZM7.24581 23.5276L7.02415 24.5027L7.02417 24.5027L7.24581 23.5276ZM6.27154 22.7708L5.56443 23.4779L5.56443 23.4779L6.27154 22.7708ZM5.22919 21.7284L5.9363 21.0213L5.9363 21.0213L5.22919 21.7284ZM4.47236 20.7542L5.44748 20.5325L4.47236 20.7542ZM4.45515 20.4089L3.46281 20.2854L3.46281 20.2854L4.45515 20.4089ZM5.11127 19.3642L4.3587 18.7057L4.3478 18.7182L4.33732 18.731L5.11127 19.3642ZM5.11128 19.3642L5.86386 20.0227L5.87476 20.0103L5.88524 19.9974L5.11128 19.3642ZM6.22952 17.4913L5.23903 17.6289L5.23903 17.6289L6.22952 17.4913ZM6.0367 17.0258L6.83437 16.4227L6.83437 16.4227L6.0367 17.0258ZM3.92167 16.4922L4.02117 15.4971L4.02117 15.4971L3.92167 16.4922ZM2.71901 16.2174L2.10468 17.0065L2.10468 17.0065L2.71901 16.2174ZM2.48706 15.9611L1.64079 16.4939L1.6408 16.4939L2.48706 15.9611ZM2.48712 12.0388L1.64092 11.5059L1.64092 11.5059L2.48712 12.0388ZM2.71891 11.7827L2.1045 10.9937L2.10449 10.9937L2.71891 11.7827ZM3.92181 11.5078L4.02131 12.5029L4.02131 12.5029L3.92181 11.5078ZM6.03725 10.974L5.23947 10.3711L5.23947 10.3711L6.03725 10.974ZM6.22994 10.5088L5.23947 10.3711L5.23947 10.3711L6.22994 10.5088ZM5.11149 8.63545L4.31149 9.23545L4.32416 9.25235L4.33753 9.26869L5.11149 8.63545ZM5.11149 8.63545L5.91149 8.03545L5.89881 8.01856L5.88544 8.00221L5.11149 8.63545ZM4.45518 7.59038L3.46282 7.71376L3.46282 7.71376L4.45518 7.59038ZM4.47238 7.24549L3.49722 7.02397L3.49722 7.02397L4.47238 7.24549ZM5.22938 6.27094L5.93649 6.97805L5.93649 6.97805L5.22938 6.27094ZM5.22939 6.27094L4.52228 5.56383L4.52228 5.56383L5.22939 6.27094ZM6.27159 5.22873L6.9787 5.93584L6.9787 5.93584L6.27159 5.22873ZM6.2716 5.22873L5.56449 4.52162L5.56449 4.52162L6.2716 5.22873ZM7.24586 4.47189L7.02421 3.49676L7.0242 3.49676L7.24586 4.47189ZM7.59106 4.45467L7.71459 3.46233L7.71458 3.46233L7.59106 4.45467ZM8.63589 5.11089L8.00265 5.88485L8.019 5.89822L8.03589 5.91089L8.63589 5.11089ZM8.6359 5.11089L9.26913 4.33693L9.25279 4.32356L9.2359 4.31089L8.6359 5.11089ZM10.5086 6.2291L10.3712 5.23858L10.3712 5.23858L10.5086 6.2291ZM10.9744 6.03615L11.5776 6.83371L11.5776 6.83371L10.9744 6.03615ZM11.5078 3.92152L10.5128 3.82202L10.5128 3.82202L11.5078 3.92152ZM11.7825 2.71911L10.9934 2.10488L10.9934 2.10488L11.7825 2.71911ZM12.039 2.487L11.5063 1.64067L11.5063 1.64067L12.039 2.487ZM15.9611 2.48707L16.4939 1.6408L16.4939 1.6408L15.9611 2.48707ZM17.4872 3.82218C17.4567 3.51717 17.4277 3.2156 17.3772 2.9648C17.3233 2.69655 17.2281 2.3894 17.0065 2.10469L15.4283 3.33333C15.3839 3.2763 15.3937 3.2455 15.4165 3.35917C15.4429 3.49028 15.4626 3.6762 15.4971 4.02118L17.4872 3.82218ZM17.6289 5.23904C17.7495 5.33025 17.7126 5.4102 17.6517 5.13038C17.5925 4.8587 17.5515 4.46477 17.4872 3.82218L15.4971 4.02118C15.5563 4.61296 15.6079 5.14481 15.6975 5.55619C15.7854 5.95942 15.9536 6.4797 16.4227 6.83438L17.6289 5.23904ZM17.6289 5.23904L17.6289 5.23905L16.4227 6.83437C16.695 7.04029 17.0156 7.17305 17.3537 7.22003L17.6289 5.23904ZM18.7309 4.33736C18.2311 4.7463 17.9236 4.99586 17.6896 5.1461C17.4486 5.30085 17.4791 5.21824 17.6289 5.23904L17.3537 7.22003C17.9362 7.30093 18.4231 7.05199 18.7703 6.82899C19.1246 6.60148 19.5371 6.26188 19.9974 5.88528L18.7309 4.33736ZM20.2853 3.46287C19.9272 3.50745 19.6428 3.65734 19.4149 3.80886C19.2019 3.95053 18.9682 4.14326 18.7309 4.33736L19.9974 5.88528C20.2657 5.66574 20.4112 5.54823 20.5225 5.47417C20.6191 5.40996 20.6041 5.43861 20.5324 5.44754L20.2853 3.46287ZM20.9758 3.49731C20.7494 3.44583 20.5157 3.43418 20.2853 3.46287L20.5324 5.44754L20.5324 5.44754L20.9758 3.49731ZM22.4354 4.52213C22.2187 4.30538 22.0053 4.09035 21.8074 3.92819C21.5958 3.75475 21.3277 3.5773 20.9758 3.49731L20.5324 5.44754C20.462 5.43152 20.45 5.40153 20.5396 5.47502C20.6431 5.5598 20.7761 5.69119 21.0212 5.93634L22.4354 4.52213ZM23.4778 5.5645L22.4354 4.52213L21.0212 5.93634L22.0636 6.97872L23.4778 5.5645ZM24.5027 7.02418C24.4227 6.67232 24.2452 6.40415 24.0718 6.19253C23.9096 5.99467 23.6946 5.78125 23.4778 5.5645L22.0636 6.97872C22.3088 7.22387 22.4402 7.35688 22.5249 7.46032C22.5984 7.54999 22.5684 7.538 22.5524 7.46752L24.5027 7.02418ZM24.5371 7.71461C24.5658 7.48422 24.5541 7.25058 24.5027 7.02416L22.5524 7.46754L22.5524 7.46754L24.5371 7.71461ZM23.6626 9.26902C23.8567 9.03178 24.0494 8.79803 24.1911 8.58501C24.3426 8.35718 24.4925 8.0727 24.5371 7.71463L22.5524 7.46752C22.5613 7.39581 22.59 7.38089 22.5258 7.47743C22.4517 7.58879 22.3342 7.73422 22.1147 8.00255L23.6626 9.26902ZM22.7609 10.3711C22.7817 10.5209 22.6991 10.5513 22.8538 10.3104C23.0041 10.0764 23.2536 9.76885 23.6626 9.26902L22.1147 8.00255C21.7381 8.46285 21.3984 8.8754 21.1709 9.22967C20.9479 9.57694 20.699 10.0638 20.7799 10.6463L22.7609 10.3711ZM22.7609 10.3711L22.7609 10.3711L20.7799 10.6463C20.8269 10.9844 20.9596 11.3049 21.1655 11.5773L22.7609 10.3711ZM24.1778 10.5128C23.5352 10.4485 23.1412 10.4075 22.8696 10.3483C22.5897 10.2874 22.6697 10.2505 22.7609 10.3711L21.1655 11.5773C21.5202 12.0464 22.0405 12.2146 22.4437 12.3025C22.8551 12.3921 23.387 12.4437 23.9788 12.5029L24.1778 10.5128ZM25.8953 10.9936C25.6106 10.7719 25.3035 10.6767 25.0352 10.6228C24.7844 10.5723 24.4828 10.5433 24.1778 10.5128L23.9788 12.5029C24.3238 12.5374 24.5097 12.5571 24.6408 12.5835C24.7545 12.6063 24.7237 12.6161 24.6667 12.5717L25.8953 10.9936ZM26.3592 11.5061C26.2355 11.3096 26.0785 11.1362 25.8953 10.9936L24.6667 12.5717L24.6667 12.5717L26.3592 11.5061ZM26.6667 13.263C26.6667 12.9564 26.6678 12.6534 26.6426 12.3989C26.6156 12.1266 26.5514 11.8115 26.3592 11.5061L24.6667 12.5717C24.6282 12.5105 24.6409 12.4808 24.6523 12.5962C24.6655 12.7293 24.6667 12.9162 24.6667 13.263H26.6667ZM26.6667 14.7372V13.263H24.6667V14.7372H26.6667ZM26.3593 16.4937C26.5515 16.1884 26.6156 15.8733 26.6426 15.6011C26.6678 15.3466 26.6667 15.0437 26.6667 14.7372H24.6667C24.6667 15.0838 24.6655 15.2708 24.6523 15.4038C24.6409 15.5192 24.6282 15.4895 24.6667 15.4283L26.3593 16.4937ZM25.8952 17.0066C26.0785 16.8639 26.2355 16.6903 26.3593 16.4937L24.6667 15.4283L24.6667 15.4283L25.8952 17.0066ZM24.1779 17.4872C24.4829 17.4567 24.7844 17.4277 25.0352 17.3773C25.3034 17.3233 25.6105 17.2282 25.8952 17.0066L24.6667 15.4283C24.7237 15.384 24.7545 15.3937 24.6408 15.4165C24.5097 15.4429 24.3238 15.4626 23.9789 15.4971L24.1779 17.4872ZM22.7613 17.6289C22.6701 17.7494 22.5902 17.7126 22.87 17.6516C23.1416 17.5924 23.5355 17.5514 24.1779 17.4872L23.9789 15.4971C23.3872 15.5563 22.8555 15.6078 22.4442 15.6975C22.0411 15.7853 21.5209 15.9534 21.1663 16.4223L22.7613 17.6289ZM22.7613 17.6289L22.7613 17.6289L21.1663 16.4223C20.9601 16.6948 20.8272 17.0156 20.7803 17.3541L22.7613 17.6289ZM23.6628 18.7306C23.2539 18.2309 23.0045 17.9235 22.8542 17.6896C22.6995 17.4487 22.7821 17.4791 22.7613 17.6289L20.7803 17.3541C20.6995 17.9365 20.9484 18.4232 21.1714 18.7703C21.3988 19.1245 21.7384 19.5369 22.1149 19.9971L23.6628 18.7306ZM24.5371 20.2845C24.4925 19.9266 24.3426 19.6422 24.1911 19.4144C24.0495 19.2015 23.8568 18.9678 23.6628 18.7306L22.1149 19.9971C22.3343 20.2653 22.4518 20.4107 22.5258 20.522C22.59 20.6186 22.5614 20.6037 22.5525 20.532L24.5371 20.2845ZM24.5026 20.9756C24.5542 20.749 24.5659 20.5152 24.5371 20.2845L22.5525 20.532L22.5525 20.532L24.5026 20.9756ZM23.478 22.4348C23.6947 22.2182 23.9097 22.0048 24.0718 21.807C24.2452 21.5954 24.4226 21.3274 24.5026 20.9756L22.5525 20.532C22.5685 20.4615 22.5985 20.4495 22.525 20.5392C22.4402 20.6426 22.3089 20.7755 22.0638 21.0206L23.478 22.4348ZM22.4355 23.4774L23.478 22.4348L22.0638 21.0206L21.0213 22.0631L22.4355 23.4774ZM20.9759 24.5022C21.3277 24.4222 21.5959 24.2447 21.8075 24.0713C22.0053 23.9091 22.2188 23.6941 22.4355 23.4774L21.0213 22.0631C20.7761 22.3083 20.6431 22.4397 20.5397 22.5245C20.45 22.598 20.462 22.568 20.5325 22.5519L20.9759 24.5022ZM20.2854 24.5366C20.5158 24.5653 20.7494 24.5537 20.9759 24.5022L20.5325 22.5519L20.5325 22.5519L20.2854 24.5366ZM18.731 23.6621C18.9682 23.8562 19.202 24.0489 19.415 24.1906C19.6428 24.3421 19.9273 24.492 20.2854 24.5366L20.5325 22.5519C20.6042 22.5609 20.6191 22.5895 20.5226 22.5253C20.4112 22.4513 20.2658 22.3337 19.9975 22.1142L18.731 23.6621ZM18.6571 23.5953L18.6571 23.5953L20.0713 22.1811L20.0713 22.181L18.6571 23.5953ZM17.6289 22.7604C17.4791 22.7812 17.4487 22.6986 17.6897 22.8534C17.9236 23.0036 18.2312 23.2532 18.731 23.6621L19.9975 22.1142C19.5372 21.7376 19.1246 21.398 18.7704 21.1705C18.4231 20.9475 17.9363 20.6985 17.3538 20.7795L17.6289 22.7604ZM17.6289 22.7604L17.6289 22.7604L17.3538 20.7795C17.0156 20.8264 16.6951 20.9592 16.4227 21.1651L17.6289 22.7604ZM17.4872 24.1775C17.5515 23.5349 17.5925 23.1409 17.6517 22.8691C17.7127 22.5893 17.7496 22.6692 17.6289 22.7604L16.4227 21.1651C15.9536 21.5198 15.7854 22.0401 15.6976 22.4434C15.6079 22.8548 15.5563 23.3867 15.4972 23.9785L17.4872 24.1775ZM17.0063 25.8955C17.2281 25.6108 17.3233 25.3035 17.3772 25.0352C17.4277 24.7843 17.4567 24.4827 17.4872 24.1775L15.4972 23.9785C15.4626 24.3236 15.4429 24.5096 15.4165 24.6408C15.3936 24.7545 15.3839 24.7237 15.4283 24.6667L17.0063 25.8955ZM16.4941 26.3591C16.6904 26.2354 16.8637 26.0786 17.0063 25.8955L15.4283 24.6667L15.4283 24.6667L16.4941 26.3591ZM14.7369 26.6667C15.0435 26.6667 15.3465 26.6678 15.6012 26.6426C15.8735 26.6156 16.1887 26.5514 16.4941 26.3591L15.4283 24.6667C15.4895 24.6281 15.5192 24.6409 15.4038 24.6523C15.2707 24.6655 15.0837 24.6667 14.7369 24.6667V26.6667ZM13.2629 26.6667H14.7369V24.6667H13.2629V26.6667ZM11.5061 26.3592C11.8115 26.5514 12.1266 26.6156 12.3989 26.6426C12.6534 26.6678 12.9564 26.6667 13.2629 26.6667V24.6667C12.9162 24.6667 12.7293 24.6655 12.5962 24.6523C12.4808 24.6409 12.5105 24.6282 12.5717 24.6667L11.5061 26.3592ZM10.9936 25.8953C11.1362 26.0785 11.3096 26.2355 11.5061 26.3592L12.5716 24.6667L12.5717 24.6667L10.9936 25.8953ZM10.5128 24.1778C10.5433 24.4828 10.5723 24.7844 10.6227 25.0352C10.6767 25.3035 10.7719 25.6106 10.9936 25.8953L12.5717 24.6667C12.6161 24.7237 12.6063 24.7545 12.5835 24.6408C12.5571 24.5097 12.5374 24.3238 12.5029 23.9788L10.5128 24.1778ZM10.3711 22.7609C10.2505 22.6697 10.2873 22.5897 10.3483 22.8696C10.4075 23.1412 10.4485 23.5352 10.5128 24.1778L12.5029 23.9788C12.4437 23.387 12.3921 22.8551 12.3025 22.4437C12.2146 22.0405 12.0464 21.5202 11.5772 21.1655L10.3711 22.7609ZM10.3711 22.7609L10.3711 22.7609L11.5772 21.1655C11.3049 20.9597 10.9845 20.8269 10.6463 20.7799L10.3711 22.7609ZM9.269 23.6626C9.76884 23.2537 10.0764 23.0041 10.3104 22.8538C10.5514 22.6991 10.5209 22.7817 10.3711 22.7609L10.6463 20.7799C10.0638 20.699 9.57695 20.9479 9.22968 21.171C8.8754 21.3985 8.46284 21.7381 8.00253 22.1147L9.269 23.6626ZM9.26045 23.6695L9.26046 23.6695L8.01107 22.1078L8.01106 22.1078L9.26045 23.6695ZM7.71453 24.5372C8.07262 24.4926 8.35711 24.3427 8.58495 24.1912C8.79798 24.0495 9.03174 23.8567 9.26899 23.6626L8.00251 22.1147C7.73417 22.3343 7.58874 22.4518 7.47738 22.5258C7.38083 22.59 7.39575 22.5614 7.46747 22.5525L7.71453 24.5372ZM7.02417 24.5027C7.25054 24.5542 7.48415 24.5658 7.71453 24.5372L7.46747 22.5525L7.46746 22.5525L7.02417 24.5027ZM5.56443 23.4779C5.78119 23.6946 5.99461 23.9097 6.19248 24.0718C6.40411 24.2453 6.67228 24.4227 7.02415 24.5027L7.46748 22.5525C7.53795 22.5685 7.54994 22.5985 7.46026 22.525C7.35682 22.4402 7.22381 22.3088 6.97865 22.0636L5.56443 23.4779ZM4.52208 22.4355L5.56443 23.4779L6.97865 22.0636L5.9363 21.0213L4.52208 22.4355ZM3.49724 20.9758C3.57723 21.3277 3.75468 21.5959 3.92813 21.8075C4.0903 22.0053 4.30534 22.2188 4.52209 22.4355L5.9363 21.0213C5.69114 20.7761 5.55975 20.6431 5.47497 20.5397C5.40147 20.45 5.43146 20.462 5.44748 20.5325L3.49724 20.9758ZM3.46281 20.2854C3.43412 20.5158 3.44578 20.7494 3.49724 20.9758L5.44748 20.5325L5.44748 20.5325L3.46281 20.2854ZM4.33732 18.731C4.14321 18.9682 3.95048 19.202 3.8088 19.415C3.65727 19.6428 3.50738 19.9273 3.46281 20.2854L5.44748 20.5325C5.43856 20.6042 5.40991 20.6191 5.47412 20.5226C5.54818 20.4112 5.66569 20.2658 5.88523 19.9975L4.33732 18.731ZM4.35871 18.7057L4.3587 18.7057L5.86385 20.0227L5.86386 20.0227L4.35871 18.7057ZM5.23903 17.6289C5.21822 17.4791 5.30084 17.4486 5.14609 17.6896C4.99584 17.9236 4.74628 18.2311 4.33733 18.731L5.88524 19.9974C6.26185 19.5371 6.60146 19.1246 6.82897 18.7703C7.05197 18.4231 7.30093 17.9362 7.22001 17.3537L5.23903 17.6289ZM5.23903 17.6289L5.23903 17.6289L7.22001 17.3537C7.17304 17.0155 7.04028 16.695 6.83437 16.4227L5.23903 17.6289ZM3.82216 17.4872C4.46476 17.5515 4.85869 17.5925 5.13037 17.6517C5.41019 17.7126 5.33024 17.7495 5.23903 17.6289L6.83437 16.4227C6.4797 15.9536 5.95942 15.7854 5.55618 15.6975C5.1448 15.6079 4.61295 15.5563 4.02117 15.4971L3.82216 17.4872ZM2.10468 17.0065C2.3894 17.2281 2.69655 17.3233 2.96479 17.3773C3.21559 17.4277 3.51716 17.4567 3.82216 17.4872L4.02117 15.4971C3.67619 15.4626 3.49027 15.4429 3.35916 15.4165C3.2455 15.3937 3.2763 15.3839 3.33333 15.4283L2.10468 17.0065ZM1.6408 16.4939C1.7645 16.6904 1.92147 16.8638 2.10468 17.0065L3.33333 15.4283L3.33333 15.4283L1.6408 16.4939ZM1.33333 14.7371C1.33333 15.0436 1.33218 15.3466 1.35742 15.6011C1.38442 15.8734 1.44856 16.1885 1.64079 16.4939L3.33333 15.4283C3.37183 15.4895 3.35911 15.5192 3.34767 15.4038C3.33447 15.2707 3.33333 15.0838 3.33333 14.7371H1.33333ZM1.33333 13.2631V14.7371H3.33333V13.2631H1.33333ZM1.64092 11.5059C1.44861 11.8113 1.38444 12.1265 1.35743 12.3988C1.33218 12.6535 1.33333 12.9565 1.33333 13.2631H3.33333C3.33333 12.9163 3.33447 12.7293 3.34767 12.5962C3.35912 12.4808 3.37185 12.5105 3.33333 12.5717L1.64092 11.5059ZM2.10449 10.9937C1.92143 11.1363 1.76456 11.3096 1.64092 11.5059L3.33333 12.5717L3.33333 12.5717L2.10449 10.9937ZM3.82231 10.5128C3.51724 10.5433 3.21561 10.5723 2.96476 10.6228C2.69646 10.6767 2.38925 10.7719 2.1045 10.9937L3.33333 12.5717C3.2763 12.6161 3.24548 12.6064 3.35917 12.5835C3.4903 12.5571 3.67626 12.5374 4.02131 12.5029L3.82231 10.5128ZM5.23947 10.3711C5.33067 10.2504 5.41066 10.2873 5.13079 10.3483C4.85906 10.4075 4.46504 10.4485 3.82231 10.5128L4.02131 12.5029C4.61322 12.4437 5.14519 12.3921 5.55664 12.3024C5.95996 12.2145 6.48034 12.0462 6.83502 11.577L5.23947 10.3711ZM5.23947 10.3711L5.23947 10.3711L6.83502 11.577C7.04074 11.3048 7.1734 10.9845 7.2204 10.6466L5.23947 10.3711ZM4.33753 9.26869C4.74658 9.76865 4.99621 10.0763 5.1465 10.3103C5.30129 10.5514 5.21863 10.5209 5.23947 10.3711L7.2204 10.6466C7.30144 10.0639 7.05244 9.57699 6.8294 9.22964C6.60185 8.87529 6.26215 8.46264 5.88544 8.00222L4.33753 9.26869ZM4.31149 9.23545L4.31149 9.23545L5.91149 8.03545L5.91149 8.03545L4.31149 9.23545ZM3.46282 7.71376C3.50735 8.07195 3.65728 8.35654 3.80884 8.58445C3.95056 8.79754 4.14335 9.03137 4.33753 9.26869L5.88544 8.00221C5.66582 7.73379 5.54827 7.58831 5.47418 7.47691C5.40995 7.38033 5.43862 7.39525 5.44754 7.467L3.46282 7.71376ZM3.49722 7.02397C3.44584 7.25017 3.4342 7.48358 3.46282 7.71376L5.44754 7.467L5.44754 7.467L3.49722 7.02397ZM4.52228 5.56383C4.30546 5.78064 4.09037 5.99412 3.92816 6.19205C3.75466 6.40374 3.57718 6.67199 3.49722 7.02397L5.44754 7.467C5.43153 7.53749 5.40152 7.54949 5.47503 7.45979C5.55983 7.35633 5.69126 7.22327 5.93649 6.97805L4.52228 5.56383ZM4.52228 5.56383L4.52228 5.56383L5.93649 6.97805L5.93649 6.97804L4.52228 5.56383ZM5.56449 4.52162L4.52228 5.56383L5.93649 6.97804L6.9787 5.93584L5.56449 4.52162ZM5.56449 4.52162L5.56449 4.52162L6.9787 5.93584L6.9787 5.93583L5.56449 4.52162ZM7.0242 3.49676C6.67233 3.57675 6.40416 3.7542 6.19253 3.92765C5.99467 4.08983 5.78124 4.30487 5.56449 4.52162L6.9787 5.93583C7.22386 5.69067 7.35688 5.55927 7.46032 5.4745C7.55 5.401 7.538 5.43099 7.46752 5.44701L7.0242 3.49676ZM7.71458 3.46233C7.48421 3.43365 7.25059 3.4453 7.02421 3.49676L7.46752 5.44701L7.46753 5.44701L7.71458 3.46233ZM9.26913 4.33693C9.03185 4.14279 8.79807 3.95004 8.58504 3.80835C8.3572 3.65682 8.07269 3.50691 7.71459 3.46233L7.46752 5.44701C7.39579 5.43808 7.38087 5.40942 7.47745 5.47366C7.58883 5.54774 7.73428 5.66527 8.00265 5.88485L9.26913 4.33693ZM9.2359 4.31089L9.23589 4.31089L8.03589 5.91089L8.0359 5.91089L9.2359 4.31089ZM10.3712 5.23858C10.5209 5.2178 10.5514 5.3004 10.3104 5.14564C10.0764 4.99538 9.76891 4.74584 9.26913 4.33693L8.00266 5.88485C8.46292 6.26143 8.87541 6.60099 9.22963 6.82848C9.57681 7.05145 10.0636 7.30041 10.646 7.21961L10.3712 5.23858ZM10.3712 5.23858L10.3712 5.23858L10.646 7.21961C10.9844 7.17267 11.3051 7.03981 11.5776 6.83371L10.3712 5.23858ZM10.5128 3.82202C10.4486 4.46447 10.4076 4.85832 10.3484 5.12994C10.2874 5.40971 10.2506 5.3298 10.3712 5.23859L11.5776 6.83371C12.0466 6.47903 12.2147 5.95886 12.3025 5.55571C12.3922 5.14441 12.4437 4.61268 12.5029 4.02103L10.5128 3.82202ZM10.9934 2.10488C10.7718 2.38956 10.6767 2.69665 10.6227 2.96483C10.5723 3.21558 10.5433 3.51708 10.5128 3.82202L12.5029 4.02103C12.5374 3.67613 12.5571 3.49025 12.5835 3.35916C12.6063 3.24552 12.616 3.27631 12.5717 3.33333L10.9934 2.10488ZM11.5063 1.64067C11.3097 1.76444 11.1361 1.92152 10.9934 2.10488L12.5716 3.33334L12.5717 3.33333L11.5063 1.64067ZM13.2628 1.33333C12.9563 1.33333 12.6534 1.33219 12.3989 1.35742C12.1267 1.3844 11.8117 1.44851 11.5063 1.64067L12.5717 3.33333C12.5105 3.37182 12.4808 3.3591 12.5962 3.34767C12.7292 3.33448 12.9162 3.33333 13.2628 3.33333V1.33333ZM14.7371 1.33333H13.2628V3.33333H14.7371V1.33333ZM16.4939 1.6408C16.1885 1.44856 15.8734 1.38442 15.6011 1.35743C15.3466 1.33219 15.0436 1.33333 14.7371 1.33333V3.33333C15.0838 3.33333 15.2707 3.33448 15.4038 3.34767C15.5192 3.35911 15.4895 3.37184 15.4283 3.33333L16.4939 1.6408ZM17.0065 2.10468C16.8638 1.92148 16.6904 1.7645 16.4939 1.6408L15.4283 3.33333L15.4283 3.33333L17.0065 2.10468ZM17.6667 14C17.6667 16.025 16.025 17.6667 14 17.6667V19.6667C17.1296 19.6667 19.6667 17.1296 19.6667 14H17.6667ZM14 10.3333C16.025 10.3333 17.6667 11.975 17.6667 14H19.6667C19.6667 10.8704 17.1296 8.33333 14 8.33333V10.3333ZM10.3333 14C10.3333 11.975 11.975 10.3333 14 10.3333V8.33333C10.8704 8.33333 8.33333 10.8704 8.33333 14H10.3333ZM14 17.6667C11.975 17.6667 10.3333 16.025 10.3333 14H8.33333C8.33333 17.1296 10.8704 19.6667 14 19.6667V17.6667Z" fill="black"/>
</svg>
