<svg width="28" height="28" viewBox="0 0 28 28" fill="none" xmlns="http://www.w3.org/2000/svg">
<path fill-rule="evenodd" clip-rule="evenodd" d="M6.12848 18.6978C6.55623 19.4146 7.08208 20.0733 7.69421 20.6535C8.98005 21.8723 10.5915 22.6923 12.3336 23.0144C14.0758 23.3364 15.8739 23.1468 17.5105 22.4683C19.1471 21.7899 20.552 20.6517 21.5553 19.1915C22.5585 17.7313 23.1172 16.0117 23.1636 14.2406C23.21 12.4696 22.7423 10.7231 21.8168 9.21231C20.8914 7.70157 19.5481 6.49136 17.9493 5.72809C16.7516 5.15632 15.449 4.85372 14.1323 4.83472L14.6765 6.86576C15.509 6.9447 16.3255 7.16913 17.0876 7.53297C18.3376 8.1297 19.3879 9.07587 20.1114 10.257C20.8349 11.4381 21.2006 12.8036 21.1643 14.1882C21.128 15.5729 20.6912 16.9173 19.9069 18.0589C19.1225 19.2005 18.0241 20.0904 16.7446 20.6208C15.4651 21.1512 14.0593 21.2995 12.6972 21.0477C11.3352 20.7959 10.0753 20.1548 9.07004 19.2019C8.73174 18.8813 8.42714 18.53 8.15952 18.1536L6.12848 18.6978Z" fill="black"/>
<path d="M6.89779 4.74421C7.84834 4.01482 8.90397 3.43744 10.0268 3.03074C10.4514 2.87694 10.6637 2.80003 10.8586 2.90166C11.0534 3.0033 11.1154 3.23446 11.2393 3.69679L13.7412 13.0341C13.8632 13.4894 13.9242 13.7171 13.8206 13.8964C13.7171 14.0758 13.4894 14.1368 13.0341 14.2588L3.69679 16.7607C3.23446 16.8846 3.0033 16.9466 2.81785 16.8286C2.63241 16.7107 2.59285 16.4884 2.51374 16.0437C2.30454 14.868 2.27676 13.6651 2.43315 12.4772C2.63312 10.9582 3.13033 9.49349 3.89637 8.16667C4.66242 6.83984 5.6823 5.67689 6.89779 4.74421Z" stroke="black" stroke-width="2"/>
</svg>
